Coordinates
version=1
nRows=6
nColumns=36
inDegrees=yes

Units are S.I. units (second, meters, Newtons, ...)
If the header above contains a line with 'inDegrees', this indicates whether rotational values are in degrees (yes) or radians (no).

endheader
time	pelvis_tilt	pelvis_list	pelvis_rotation	pelvis_tx	pelvis_ty	pelvis_tz	hip_flexion_r	hip_adduction_r	hip_rotation_r	knee_angle_r	knee_angle_r_beta	ankle_angle_r	subtalar_angle_r	mtp_angle_r	hip_flexion_l	hip_adduction_l	hip_rotation_l	knee_angle_l	knee_angle_l_beta	ankle_angle_l	subtalar_angle_l	mtp_angle_l	lumbar_extension	lumbar_bending	lumbar_rotation	arm_flex_r	arm_add_r	arm_rot_r	elbow_flex_r	pro_sup_r	arm_flex_l	arm_add_l	arm_rot_l	elbow_flex_l	pro_sup_l
      1.75000000	    -15.67114882	     -0.50494288	      0.69266362	      0.31750906	      0.85103433	     -0.10576281	     27.21158709	     -2.30075159	      3.25289266	      9.88360357	      0.17250142	      1.54730217	    -21.88360111	     -7.49999987	     27.98490605	     -2.94798516	      2.03291606	     10.71465662	      0.18700604	      2.29894228	    -11.07609003	     -7.49999987	    -12.63644565	     -1.12034807	     -0.28939773	     11.00332604	    -12.80335146	     29.22059157	     32.36282565	     75.45174139	      9.41540182	    -14.79226604	     20.03068314	     37.62548924	     74.59708584
      1.76666670	    -16.94390337	     -0.55756843	      0.69541352	      0.30906875	      0.84704874	     -0.10821364	     29.78229668	     -2.26382335	      3.39565107	     11.31480775	      0.19748065	      1.39277940	    -22.65031658	     -7.49999987	     30.59445670	     -2.96866596	      1.81932362	     12.17291369	      0.21245742	      2.42094361	    -11.35844070	     -7.49999987	    -12.90044576	     -1.14225543	     -0.32741137	     11.42459410	    -13.08420555	     29.42848492	     32.66042363	     75.71275688	      9.83839258	    -15.04367196	     19.89999656	     38.02805121	     74.83024930
      1.78333330	    -18.31671204	     -0.63875089	      0.72599739	      0.30161612	      0.84245275	     -0.10648179	     32.64219932	     -2.10851880	      3.84555167	     13.00705099	      0.22701587	      1.09546178	    -23.99556993	     -7.49999987	     33.48619055	     -3.07632588	      1.67881396	     13.97299081	      0.24387470	      2.63162854	    -11.69069630	     -7.49999987	    -13.02125730	     -1.17257694	     -0.45060783	     11.93451345	    -13.19741742	     29.68666281	     32.69196356	     75.32170895	     10.22407110	    -15.29636986	     19.56811106	     38.28623637	     74.39473355
      1.80000000	    -19.28553056	     -0.72393214	      0.79894958	      0.29964018	      0.83778439	     -0.10839177	     34.97524147	     -2.05420946	      4.13872252	     14.87968761	      0.25969954	      1.13191435	    -25.04279271	     -7.49999987	     35.87115754	     -3.13403725	      1.76276431	     15.80039518	      0.27576892	      3.01295624	    -11.94242996	     -7.49999987	    -13.53588446	     -1.12820010	     -0.49539851	     12.30115177	    -13.47417734	     29.78059962	     32.76544090	     75.48267002	     10.62961113	    -15.46806893	     19.29775467	     38.50247753	     74.49873620
      1.81666670	    -20.73224948	     -0.89610426	      0.78711882	      0.29252120	      0.83314207	     -0.10332545	     38.00125064	     -1.78058775	      4.32560006	     16.94052797	      0.29566799	      0.90380399	    -26.22588759	     -7.49999987	     39.13753136	     -3.48094946	      1.42381047	     18.27353110	      0.31893328	      3.49234367	    -11.57552853	     -7.49999987	    -13.41302540	     -1.13147653	     -0.52490712	     12.59884288	    -13.53225075	     29.79939352	     32.78497286	     75.67034520	     10.77813514	    -15.70813387	     18.65079434	     38.64464202	     74.56288205
      1.83333330	    -21.80593413	     -1.06162754	      0.72318974	      0.28962907	      0.82767691	     -0.10587216	     40.66271143	     -1.55453288	      4.48718105	     19.27943445	      0.33648961	      1.04040260	    -27.25657527	     -7.49999987	     41.98522027	     -3.74123863	      1.30856348	     20.90322450	      0.36483009	      4.25097300	    -11.48441211	     -7.49999987	    -13.62143776	     -1.01463706	     -0.52512664	     12.89178996	    -13.60653597	     29.70259673	     32.61104085	     75.79405335	     10.87706900	    -15.70418098	     17.72663034	     38.59831003	     74.53830401
